# xmcd
# 
# Track frame offsets:
#     150
#     99051
#     149908
#     219431
# 
# Disc length: 3545
# 
# Revision: 0
# Processed by: cddbd v1.5.2PL0 Copyright (c) Steve Scherf et al.
# Submitted via: fre:ac v1.0.17
# 
DISCID=350dd704
DTITLE=Ebbe Trenskow - H. C. Andersen 2
DYEAR=2005
DGENRE=
TTITLE0=Den grimme ælling
TTITLE1=Hyrdinden og skorstensfejeren
TTITLE2=Fyrtøjet
TTITLE3=Svinedrengen
EXTD=
EXTT0=
EXTT1=
EXTT2=
EXTT3=
PLAYORDER=
